<mxfile host="app.diagrams.net" agent="Mozilla/5.0 (Windows NT 10.0; Win64; x64) AppleWebKit/537.36 (KHTML, like Gecko) Chrome/128.0.0.0 Safari/537.36 Edg/128.0.0.0" version="24.7.16">
  <diagram name="第 1 页" id="qRR82At3hOsfzpTBoZ09">
    <mxGraphModel dx="762" dy="468" grid="1" gridSize="10" guides="1" tooltips="1" connect="1" arrows="1" fold="1" page="1" pageScale="1" pageWidth="827" pageHeight="1169" math="0" shadow="0">
      <root>
        <mxCell id="0" />
        <mxCell id="1" parent="0" />
        <mxCell id="Y0qxOK-AxX7gvibJEH6--3" value="" style="edgeStyle=orthogonalEdgeStyle;rounded=0;orthogonalLoop=1;jettySize=auto;html=1;" edge="1" parent="1" source="jGW_U6NvGApJUAMfFt3g-1" target="Y0qxOK-AxX7gvibJEH6--2">
          <mxGeometry relative="1" as="geometry" />
        </mxCell>
        <mxCell id="jGW_U6NvGApJUAMfFt3g-1" value="轨迹" style="rounded=0;whiteSpace=wrap;html=1;" parent="1" vertex="1">
          <mxGeometry x="180" y="180" width="70" height="40" as="geometry" />
        </mxCell>
        <mxCell id="Y0qxOK-AxX7gvibJEH6--2" value="卡尔曼滤波预测" style="rounded=0;whiteSpace=wrap;html=1;" vertex="1" parent="1">
          <mxGeometry x="290" y="180" width="70" height="40" as="geometry" />
        </mxCell>
      </root>
    </mxGraphModel>
  </diagram>
</mxfile>
